<mxfile host="app.diagrams.net" agent="Mozilla/5.0 (Windows NT 10.0; Win64; x64) AppleWebKit/537.36 (KHTML, like Gecko) Chrome/133.0.0.0 Safari/537.36" version="26.0.16">
  <diagram name="PÃ¡gina-1" id="mXXeM9qZpzDEx3kGBecD">
    <mxGraphModel dx="1474" dy="733" grid="1" gridSize="10" guides="1" tooltips="1" connect="1" arrows="1" fold="1" page="1" pageScale="1" pageWidth="827" pageHeight="1169" math="0" shadow="0">
      <root>
        <mxCell id="0" />
        <mxCell id="1" parent="0" />
        <mxCell id="JitObn41db6_o8aK2a7l-47" style="edgeStyle=orthogonalEdgeStyle;rounded=0;orthogonalLoop=1;jettySize=auto;html=1;exitX=1;exitY=0.5;exitDx=0;exitDy=0;entryX=0;entryY=0.5;entryDx=0;entryDy=0;" parent="1" source="JitObn41db6_o8aK2a7l-1" target="JitObn41db6_o8aK2a7l-31" edge="1">
          <mxGeometry relative="1" as="geometry" />
        </mxCell>
        <mxCell id="JitObn41db6_o8aK2a7l-48" style="edgeStyle=orthogonalEdgeStyle;rounded=0;orthogonalLoop=1;jettySize=auto;html=1;exitX=1;exitY=0.25;exitDx=0;exitDy=0;entryX=0;entryY=0.5;entryDx=0;entryDy=0;" parent="1" source="JitObn41db6_o8aK2a7l-1" target="JitObn41db6_o8aK2a7l-30" edge="1">
          <mxGeometry relative="1" as="geometry" />
        </mxCell>
        <mxCell id="JitObn41db6_o8aK2a7l-49" style="edgeStyle=orthogonalEdgeStyle;rounded=0;orthogonalLoop=1;jettySize=auto;html=1;exitX=1;exitY=0;exitDx=0;exitDy=0;entryX=0;entryY=0.5;entryDx=0;entryDy=0;" parent="1" source="JitObn41db6_o8aK2a7l-1" target="JitObn41db6_o8aK2a7l-29" edge="1">
          <mxGeometry relative="1" as="geometry" />
        </mxCell>
        <mxCell id="JitObn41db6_o8aK2a7l-50" style="edgeStyle=orthogonalEdgeStyle;rounded=0;orthogonalLoop=1;jettySize=auto;html=1;exitX=0.75;exitY=0;exitDx=0;exitDy=0;entryX=0;entryY=0.5;entryDx=0;entryDy=0;" parent="1" source="JitObn41db6_o8aK2a7l-1" target="JitObn41db6_o8aK2a7l-28" edge="1">
          <mxGeometry relative="1" as="geometry" />
        </mxCell>
        <mxCell id="JitObn41db6_o8aK2a7l-51" style="edgeStyle=orthogonalEdgeStyle;rounded=0;orthogonalLoop=1;jettySize=auto;html=1;exitX=1;exitY=0.75;exitDx=0;exitDy=0;entryX=0;entryY=0.5;entryDx=0;entryDy=0;" parent="1" source="JitObn41db6_o8aK2a7l-1" target="JitObn41db6_o8aK2a7l-32" edge="1">
          <mxGeometry relative="1" as="geometry" />
        </mxCell>
        <mxCell id="JitObn41db6_o8aK2a7l-52" style="edgeStyle=orthogonalEdgeStyle;rounded=0;orthogonalLoop=1;jettySize=auto;html=1;exitX=1;exitY=1;exitDx=0;exitDy=0;entryX=0;entryY=0.5;entryDx=0;entryDy=0;" parent="1" source="JitObn41db6_o8aK2a7l-1" target="JitObn41db6_o8aK2a7l-33" edge="1">
          <mxGeometry relative="1" as="geometry" />
        </mxCell>
        <mxCell id="JitObn41db6_o8aK2a7l-1" value="Personagem" style="rounded=0;whiteSpace=wrap;html=1;" parent="1" vertex="1">
          <mxGeometry x="410" y="260" width="120" height="60" as="geometry" />
        </mxCell>
        <mxCell id="JitObn41db6_o8aK2a7l-3" style="edgeStyle=orthogonalEdgeStyle;rounded=0;orthogonalLoop=1;jettySize=auto;html=1;exitX=1;exitY=0.5;exitDx=0;exitDy=0;" parent="1" source="JitObn41db6_o8aK2a7l-2" target="JitObn41db6_o8aK2a7l-1" edge="1">
          <mxGeometry relative="1" as="geometry" />
        </mxCell>
        <mxCell id="JitObn41db6_o8aK2a7l-40" style="edgeStyle=orthogonalEdgeStyle;rounded=0;orthogonalLoop=1;jettySize=auto;html=1;exitX=0;exitY=0.5;exitDx=0;exitDy=0;entryX=1;entryY=0.5;entryDx=0;entryDy=0;" parent="1" source="JitObn41db6_o8aK2a7l-2" target="JitObn41db6_o8aK2a7l-13" edge="1">
          <mxGeometry relative="1" as="geometry" />
        </mxCell>
        <mxCell id="JitObn41db6_o8aK2a7l-41" style="edgeStyle=orthogonalEdgeStyle;rounded=0;orthogonalLoop=1;jettySize=auto;html=1;exitX=0;exitY=0.25;exitDx=0;exitDy=0;entryX=1;entryY=0.5;entryDx=0;entryDy=0;" parent="1" source="JitObn41db6_o8aK2a7l-2" target="JitObn41db6_o8aK2a7l-12" edge="1">
          <mxGeometry relative="1" as="geometry" />
        </mxCell>
        <mxCell id="JitObn41db6_o8aK2a7l-42" style="edgeStyle=orthogonalEdgeStyle;rounded=0;orthogonalLoop=1;jettySize=auto;html=1;exitX=0;exitY=0;exitDx=0;exitDy=0;entryX=1;entryY=0.5;entryDx=0;entryDy=0;" parent="1" source="JitObn41db6_o8aK2a7l-2" target="JitObn41db6_o8aK2a7l-11" edge="1">
          <mxGeometry relative="1" as="geometry" />
        </mxCell>
        <mxCell id="JitObn41db6_o8aK2a7l-43" style="edgeStyle=orthogonalEdgeStyle;rounded=0;orthogonalLoop=1;jettySize=auto;html=1;exitX=0.25;exitY=0;exitDx=0;exitDy=0;entryX=1;entryY=0.5;entryDx=0;entryDy=0;" parent="1" source="JitObn41db6_o8aK2a7l-2" target="JitObn41db6_o8aK2a7l-10" edge="1">
          <mxGeometry relative="1" as="geometry" />
        </mxCell>
        <mxCell id="JitObn41db6_o8aK2a7l-44" style="edgeStyle=orthogonalEdgeStyle;rounded=0;orthogonalLoop=1;jettySize=auto;html=1;exitX=0;exitY=0.75;exitDx=0;exitDy=0;entryX=1;entryY=0.5;entryDx=0;entryDy=0;" parent="1" source="JitObn41db6_o8aK2a7l-2" target="JitObn41db6_o8aK2a7l-14" edge="1">
          <mxGeometry relative="1" as="geometry" />
        </mxCell>
        <mxCell id="JitObn41db6_o8aK2a7l-45" style="edgeStyle=orthogonalEdgeStyle;rounded=0;orthogonalLoop=1;jettySize=auto;html=1;exitX=0;exitY=1;exitDx=0;exitDy=0;entryX=1;entryY=0.5;entryDx=0;entryDy=0;" parent="1" source="JitObn41db6_o8aK2a7l-2" target="JitObn41db6_o8aK2a7l-15" edge="1">
          <mxGeometry relative="1" as="geometry" />
        </mxCell>
        <mxCell id="JitObn41db6_o8aK2a7l-46" style="edgeStyle=orthogonalEdgeStyle;rounded=0;orthogonalLoop=1;jettySize=auto;html=1;exitX=0.25;exitY=1;exitDx=0;exitDy=0;entryX=1;entryY=0.5;entryDx=0;entryDy=0;" parent="1" source="JitObn41db6_o8aK2a7l-2" target="JitObn41db6_o8aK2a7l-16" edge="1">
          <mxGeometry relative="1" as="geometry" />
        </mxCell>
        <mxCell id="JitObn41db6_o8aK2a7l-2" value="Filme" style="rounded=0;whiteSpace=wrap;html=1;" parent="1" vertex="1">
          <mxGeometry x="190" y="260" width="120" height="60" as="geometry" />
        </mxCell>
        <mxCell id="JitObn41db6_o8aK2a7l-4" value="1:N" style="text;html=1;align=center;verticalAlign=middle;resizable=0;points=[];autosize=1;strokeColor=none;fillColor=none;" parent="1" vertex="1">
          <mxGeometry x="340" y="260" width="40" height="30" as="geometry" />
        </mxCell>
        <mxCell id="JitObn41db6_o8aK2a7l-10" value="idPersonagem" style="ellipse;whiteSpace=wrap;html=1;" parent="1" vertex="1">
          <mxGeometry x="30" y="90" width="120" height="50" as="geometry" />
        </mxCell>
        <mxCell id="JitObn41db6_o8aK2a7l-11" value="idFilme" style="ellipse;whiteSpace=wrap;html=1;" parent="1" vertex="1">
          <mxGeometry x="30" y="150" width="120" height="50" as="geometry" />
        </mxCell>
        <mxCell id="JitObn41db6_o8aK2a7l-12" value="Titulo" style="ellipse;whiteSpace=wrap;html=1;" parent="1" vertex="1">
          <mxGeometry x="30" y="210" width="120" height="50" as="geometry" />
        </mxCell>
        <mxCell id="JitObn41db6_o8aK2a7l-13" value="Sub Titulo" style="ellipse;whiteSpace=wrap;html=1;" parent="1" vertex="1">
          <mxGeometry x="30" y="270" width="120" height="50" as="geometry" />
        </mxCell>
        <mxCell id="JitObn41db6_o8aK2a7l-14" value="Ano lancamento" style="ellipse;whiteSpace=wrap;html=1;" parent="1" vertex="1">
          <mxGeometry x="30" y="330" width="120" height="50" as="geometry" />
        </mxCell>
        <mxCell id="JitObn41db6_o8aK2a7l-15" value="Tempo duracao" style="ellipse;whiteSpace=wrap;html=1;" parent="1" vertex="1">
          <mxGeometry x="30" y="400" width="120" height="50" as="geometry" />
        </mxCell>
        <mxCell id="JitObn41db6_o8aK2a7l-16" value="Bilheteria" style="ellipse;whiteSpace=wrap;html=1;" parent="1" vertex="1">
          <mxGeometry x="30" y="470" width="120" height="50" as="geometry" />
        </mxCell>
        <mxCell id="JitObn41db6_o8aK2a7l-28" value="idFilme" style="ellipse;whiteSpace=wrap;html=1;" parent="1" vertex="1">
          <mxGeometry x="570" y="110" width="120" height="50" as="geometry" />
        </mxCell>
        <mxCell id="JitObn41db6_o8aK2a7l-29" value="idPersonagem" style="ellipse;whiteSpace=wrap;html=1;" parent="1" vertex="1">
          <mxGeometry x="570" y="170" width="120" height="50" as="geometry" />
        </mxCell>
        <mxCell id="JitObn41db6_o8aK2a7l-30" value="Nome" style="ellipse;whiteSpace=wrap;html=1;" parent="1" vertex="1">
          <mxGeometry x="570" y="230" width="120" height="50" as="geometry" />
        </mxCell>
        <mxCell id="JitObn41db6_o8aK2a7l-31" value="Tempo cena" style="ellipse;whiteSpace=wrap;html=1;" parent="1" vertex="1">
          <mxGeometry x="570" y="290" width="120" height="50" as="geometry" />
        </mxCell>
        <mxCell id="JitObn41db6_o8aK2a7l-32" value="Descricao papel" style="ellipse;whiteSpace=wrap;html=1;" parent="1" vertex="1">
          <mxGeometry x="570" y="360" width="120" height="50" as="geometry" />
        </mxCell>
        <mxCell id="tId9_3JuCbCS0l0c2gXQ-1" style="edgeStyle=orthogonalEdgeStyle;rounded=0;orthogonalLoop=1;jettySize=auto;html=1;exitX=0.5;exitY=1;exitDx=0;exitDy=0;entryX=1;entryY=0.5;entryDx=0;entryDy=0;" edge="1" parent="1" source="JitObn41db6_o8aK2a7l-33" target="JitObn41db6_o8aK2a7l-39">
          <mxGeometry relative="1" as="geometry">
            <Array as="points">
              <mxPoint x="630" y="485" />
            </Array>
          </mxGeometry>
        </mxCell>
        <mxCell id="tId9_3JuCbCS0l0c2gXQ-2" style="edgeStyle=orthogonalEdgeStyle;rounded=0;orthogonalLoop=1;jettySize=auto;html=1;exitX=0.5;exitY=1;exitDx=0;exitDy=0;entryX=1;entryY=0;entryDx=0;entryDy=0;" edge="1" parent="1" source="JitObn41db6_o8aK2a7l-33" target="JitObn41db6_o8aK2a7l-38">
          <mxGeometry relative="1" as="geometry" />
        </mxCell>
        <mxCell id="tId9_3JuCbCS0l0c2gXQ-3" style="edgeStyle=orthogonalEdgeStyle;rounded=0;orthogonalLoop=1;jettySize=auto;html=1;exitX=0.5;exitY=1;exitDx=0;exitDy=0;entryX=0.5;entryY=0;entryDx=0;entryDy=0;" edge="1" parent="1" source="JitObn41db6_o8aK2a7l-33" target="JitObn41db6_o8aK2a7l-36">
          <mxGeometry relative="1" as="geometry" />
        </mxCell>
        <mxCell id="tId9_3JuCbCS0l0c2gXQ-5" style="edgeStyle=orthogonalEdgeStyle;rounded=0;orthogonalLoop=1;jettySize=auto;html=1;exitX=0.5;exitY=1;exitDx=0;exitDy=0;entryX=0.5;entryY=0;entryDx=0;entryDy=0;" edge="1" parent="1" source="JitObn41db6_o8aK2a7l-33" target="JitObn41db6_o8aK2a7l-34">
          <mxGeometry relative="1" as="geometry">
            <Array as="points">
              <mxPoint x="630" y="490" />
              <mxPoint x="750" y="490" />
            </Array>
          </mxGeometry>
        </mxCell>
        <mxCell id="JitObn41db6_o8aK2a7l-33" value="Tipo papel" style="ellipse;whiteSpace=wrap;html=1;" parent="1" vertex="1">
          <mxGeometry x="570" y="430" width="120" height="50" as="geometry" />
        </mxCell>
        <mxCell id="JitObn41db6_o8aK2a7l-34" value="Principal" style="ellipse;whiteSpace=wrap;html=1;" parent="1" vertex="1">
          <mxGeometry x="690" y="510" width="120" height="50" as="geometry" />
        </mxCell>
        <mxCell id="JitObn41db6_o8aK2a7l-35" value="Coadjuvante" style="ellipse;whiteSpace=wrap;html=1;" parent="1" vertex="1">
          <mxGeometry x="630" y="600" width="120" height="50" as="geometry" />
        </mxCell>
        <mxCell id="JitObn41db6_o8aK2a7l-36" value="Suporte" style="ellipse;whiteSpace=wrap;html=1;" parent="1" vertex="1">
          <mxGeometry x="500" y="590" width="120" height="50" as="geometry" />
        </mxCell>
        <mxCell id="JitObn41db6_o8aK2a7l-38" value="Secundario" style="ellipse;whiteSpace=wrap;html=1;" parent="1" vertex="1">
          <mxGeometry x="380" y="540" width="120" height="50" as="geometry" />
        </mxCell>
        <mxCell id="JitObn41db6_o8aK2a7l-39" value="Narrador" style="ellipse;whiteSpace=wrap;html=1;" parent="1" vertex="1">
          <mxGeometry x="340" y="460" width="120" height="50" as="geometry" />
        </mxCell>
        <mxCell id="tId9_3JuCbCS0l0c2gXQ-4" style="edgeStyle=orthogonalEdgeStyle;rounded=0;orthogonalLoop=1;jettySize=auto;html=1;exitX=0.5;exitY=1;exitDx=0;exitDy=0;entryX=0.417;entryY=0;entryDx=0;entryDy=0;entryPerimeter=0;" edge="1" parent="1" source="JitObn41db6_o8aK2a7l-33" target="JitObn41db6_o8aK2a7l-35">
          <mxGeometry relative="1" as="geometry" />
        </mxCell>
        <mxCell id="tId9_3JuCbCS0l0c2gXQ-6" value="&lt;h1&gt;Problema 5&lt;/h1&gt;" style="text;html=1;align=center;verticalAlign=middle;resizable=0;points=[];autosize=1;strokeColor=none;fillColor=none;" vertex="1" parent="1">
          <mxGeometry x="339" y="20" width="150" height="70" as="geometry" />
        </mxCell>
      </root>
    </mxGraphModel>
  </diagram>
</mxfile>
